<svg xmlns="http://www.w3.org/2000/svg" viewBox="0 0 85.946 57.894"><defs><style>.cls-1{fill:#93518a;fill-rule:evenodd;}</style></defs><title>Ativo 7</title><g id="Camada_2" data-name="Camada 2"><g id="Camada_1-2" data-name="Camada 1"><polygon class="cls-1" points="6.851 51.962 6.592 53.537 6.401 53.492 6.211 53.447 6.021 53.402 5.83 53.356 5.64 53.311 5.45 53.266 5.26 53.22 5.07 53.175 4.881 53.129 4.692 53.083 4.504 53.037 4.315 52.991 4.126 52.945 3.939 52.899 3.749 52.854 3.562 52.807 3.374 52.761 3.186 52.715 3 52.668 2.814 52.622 2.627 52.576 2.441 52.529 2.254 52.483 2.069 52.436 1.884 52.39 1.7 52.343 1.514 52.297 1.331 52.25 1.148 52.203 0.963 52.157 0.78 52.11 0.598 52.063 0.891 50.496 1.074 50.542 1.256 50.589 1.437 50.635 1.621 50.681 1.804 50.728 1.986 50.774 2.17 50.82 2.355 50.867 2.541 50.913 2.724 50.96 2.908 51.006 3.093 51.051 3.281 51.098 3.467 51.144 3.652 51.19 3.839 51.236 4.026 51.282 4.212 51.328 4.4 51.373 4.587 51.419 4.775 51.464 4.964 51.51 5.152 51.556 5.34 51.601 5.528 51.646 5.717 51.692 5.905 51.737 6.094 51.783 6.282 51.827 6.473 51.872 6.662 51.917 6.851 51.962"/><polygon class="cls-1" points="10.871 49.283 10.651 50.87 10.314 50.8 9.976 50.729 9.639 50.657 9.302 50.586 8.964 50.514 8.627 50.442 8.289 50.369 7.952 50.296 7.615 50.223 7.279 50.149 6.941 50.076 6.605 50.002 6.269 49.928 5.933 49.853 5.598 49.779 5.263 49.704 4.928 49.629 4.594 49.554 4.261 49.478 3.929 49.403 3.597 49.328 3.265 49.252 2.934 49.176 2.605 49.1 2.276 49.025 1.947 48.949 1.62 48.873 1.294 48.797 0.969 48.721 0.645 48.645 0.322 48.569 0 48.493 0.267 46.916 0.587 46.992 0.909 47.067 1.232 47.143 1.556 47.219 1.881 47.295 2.207 47.37 2.532 47.446 2.86 47.521 3.19 47.597 3.518 47.672 3.849 47.747 4.179 47.822 4.511 47.898 4.843 47.972 5.175 48.047 5.508 48.122 5.841 48.196 6.176 48.27 6.51 48.345 6.845 48.418 7.18 48.492 7.515 48.566 7.85 48.638 8.187 48.711 8.522 48.784 8.857 48.856 9.193 48.928 9.529 49 9.865 49.072 10.201 49.142 10.535 49.213 10.871 49.283"/><path class="cls-1" d="M6.454,45.134,6.24,46.723,6.129,46.7l-.112-.023L5.9,46.654l-.112-.024-.11-.022-.114-.023-.111-.024-.11-.022-.114-.024-.112-.023-.111-.023L4.9,46.446l-.112-.023L4.674,46.4l-.11-.023-.114-.023-.11-.023-.112-.024-.112-.023-.109-.024L3.9,46.237l-.113-.024-.112-.024-.108-.023-.111-.023-.113-.024-.11-.023-.11-.023-.109-.024-.11-.022L2.787,46l-.109-.024L2.9,44.393l.11.024.108.023.11.023.112.024.11.023.111.023.109.023.11.023L3.9,44.6l.11.023.109.023.111.023.113.024.109.023.11.023.113.024.11.022.111.023L5,44.835l.111.023.112.023.112.023.111.023.109.023.114.023L5.784,45l.11.022.114.023.112.024.11.022.112.023.112.023Zm7.561,1.481-.181,1.595-.182-.034-.182-.034-.183-.034-.183-.034-.184-.035L12.737,48l-.183-.034-.184-.035-.183-.035L12,47.865l-.183-.036-.184-.034-.185-.036-.183-.035-.186-.036-.184-.036-.184-.036-.185-.036-.185-.036-.184-.036-.185-.036-.186-.037L9.6,47.4l-.185-.037-.184-.036-.184-.037-.186-.036-.185-.037-.185-.037-.185-.037-.185-.037-.185-.037.207-1.591.184.037.185.038.183.036.184.036.185.038.183.036.186.037.184.036.184.037.185.036.183.037.184.035.184.036.184.036.183.036.184.035.184.036.184.035.184.036.182.035.183.035.184.035.183.035.183.035.182.035.183.034.183.035.182.034.181.034.183.034.181.034Z"/><path class="cls-1" d="M16.782,43.715l-.131,1.6-.145-.023-.144-.023-.144-.022-.145-.023-.145-.023-.146-.023-.147-.024-.144-.023-.145-.023-.147-.023-.148-.024-.146-.024-.146-.024-.146-.024-.146-.023-.148-.024-.147-.024-.147-.024-.147-.024-.147-.024-.149-.024-.149-.025-.146-.024-.148-.024-.149-.025-.147-.025-.148-.024-.15-.025-.149-.025L12.25,44.6l-.15-.025-.149-.025.148-1.6.149.025L12.4,43l.15.024.148.025.146.025.149.024.148.025.146.024.148.024.149.025.146.024.146.024.147.024.147.024.148.024.146.024.146.024.146.023.147.024.146.024.147.024.144.022.144.024.146.023.147.024.144.023.144.023.145.022.145.023.145.023.144.023.143.023Zm39.174,6.262-.209,1.589-.139-.028-.136-.027-.139-.028-.138-.028-.139-.028-.139-.027-.137-.028-.139-.028-.136-.027-.139-.028-.137-.028-.136-.027-.138-.027-.138-.027-.137-.027-.137-.028-.138-.027-.135-.027-.136-.026L53,51.018l-.137-.028-.136-.026-.136-.027-.137-.026-.134-.027-.137-.026-.136-.027-.136-.026-.136-.027-.134-.025-.136-.027-.135-.026.193-1.593.135.027.135.025.138.027.135.027.136.026.136.026.136.027.137.026.137.027.137.027.137.027.137.027.135.026.139.028.139.027.137.027.137.027.137.028.138.027.137.027.14.028.137.028.138.026.14.029.138.028.137.027.138.028.139.028.138.028.139.028.14.028.138.028Zm7.349,1.559-.243,1.582-.148-.033-.149-.032-.149-.034-.147-.032-.152-.033-.149-.033-.147-.033-.15-.032-.147-.032-.15-.033-.151-.033-.147-.032-.148-.032-.151-.032-.149-.033L60.68,52.6l-.15-.032-.149-.033-.149-.031-.149-.032-.149-.032-.15-.031-.149-.033-.148-.031-.149-.031-.15-.032-.15-.031-.149-.032-.148-.032-.149-.031-.149-.031-.149-.031.22-1.587.15.031.149.031.15.031.151.032.149.031.15.032.149.032.149.031.151.033.15.032.15.031.149.033.149.031.151.033.15.032.149.032.151.032.15.033.148.032.151.032.151.033.148.033.149.032.151.033.149.033.151.033.149.033.148.032.151.034.149.033.149.033.15.033Zm10.211,2.452-.31,1.567-.134-.035-.135-.035-.136-.036-.135-.035-.135-.035-.135-.035-.135-.034-.138-.036-.136-.035-.135-.034-.138-.035-.137-.035L71.44,55.1l-.137-.034-.138-.035L71.028,55l-.137-.034-.139-.035-.138-.034-.139-.035-.139-.034-.139-.035-.138-.034-.138-.034-.141-.034-.14-.035-.14-.034-.139-.034-.14-.035-.139-.033-.14-.034-.142-.034.276-1.575.141.034.142.034.142.035.141.034.14.034.141.035.14.034.14.035.14.034.141.035.139.035.14.034.14.035.138.035.139.034.139.035.14.035.138.035.139.035.138.035.137.035.137.035.14.035.137.036.136.034.138.036.136.036.137.035.137.035.135.035.135.035.137.036Zm8.216,2.369-.408,1.537-.041-.013-.047-.015-.042-.013-.038-.012-.043-.014-.048-.015-.043-.014-.038-.012-.043-.014-.042-.013-.048-.015-.043-.015-.037-.011-.044-.014-.043-.013-.049-.016-.043-.014-.039-.012-.044-.013-.042-.013-.044-.014-.048-.015-.043-.014-.041-.012-.043-.014-.043-.013-.042-.013-.05-.016-.046-.014-.039-.012-.042-.013-.046-.014.385-1.545.044.013.046.014.049.016.043.013.039.012.046.014.046.015.043.013.048.015.046.015.038.012.044.013.046.014.043.014.049.015.043.014.039.012.044.014.043.014.05.015.044.015.038.012.045.014.043.013.048.016.043.014.038.012.043.013.048.016.045.014.037.012Z"/><path class="cls-1" d="M19.053,40.636l-.093,1.61-.129-.018-.128-.017-.129-.018-.13-.018-.129-.018-.128-.016-.131-.019-.131-.018-.128-.017-.13-.018-.132-.018-.13-.018-.131-.018L17.144,42l-.132-.018-.132-.018-.129-.018-.133-.018-.131-.019-.131-.018-.133-.019-.131-.018-.131-.018-.134-.019L15.7,41.8l-.132-.018-.134-.02-.132-.019-.131-.018-.134-.019-.133-.019-.133-.018.1-1.608.133.019.133.019.131.018.134.019.133.019.131.018.133.018.131.019.131.018.131.018.134.019.13.018.132.018.131.019.13.018.133.018.131.018.13.018.13.018.131.018.13.018.129.018.129.018.133.018.128.018.127.017.132.018.129.018.128.016.129.018.128.017.129.018Zm18.213,3.972-.4-.059.118-1.606.4.06-.118,1.6Zm5.232-.791-.145,1.6-.138-.022-.137-.023-.136-.022-.137-.022-.137-.023-.136-.022-.135-.022-.133-.022-.135-.022L41,45.2l-.133-.022-.131-.02-.133-.022-.132-.021-.133-.022-.129-.02-.13-.021-.13-.021-.13-.021-.127-.02-.127-.02-.129-.021-.128-.02-.125-.02-.127-.019-.126-.021-.121-.019-.126-.019-.124-.019-.123-.02-.123-.019-.121-.019.126-1.6.123.019.122.019.125.019.123.02.124.019.129.02.124.02.126.02.127.02.127.02.127.02.13.021.13.02.129.021.13.021.131.02.132.022.131.021.132.021.132.021.134.022.134.022.133.022.134.021.137.022.137.023.135.022.135.022.137.023.138.022.14.024.137.022Zm13.187,2.37-.194,1.592-.135-.026-.133-.026-.135-.026-.134-.026-.132-.025-.136-.026-.134-.026-.132-.025-.132-.025-.134-.026-.136-.026-.131-.025-.133-.025-.134-.026-.131-.024-.133-.025-.132-.026-.133-.025-.133-.025-.131-.025-.133-.024-.131-.025-.131-.024-.132-.025-.131-.025-.132-.024-.132-.025-.131-.024-.13-.024-.131-.024L51.382,47l-.13-.024.179-1.6.131.024.131.025.13.024.133.025.131.024.132.025.13.024.132.025.132.024.133.025.133.025.131.025.134.025.132.025.133.025.132.025.133.025.135.026.132.025.134.025.135.026.131.026.133.024.136.026.136.026.133.027.133.025.135.026.134.026.134.025.136.027.134.026Zm7.7,1.567-.229,1.586-.146-.031-.146-.032-.145-.031-.147-.031-.147-.031-.146-.031-.145-.03-.147-.031-.146-.031-.147-.03L61.549,49,61.4,48.97l-.147-.031-.147-.031-.146-.03-.145-.03-.147-.03-.146-.031-.147-.03-.147-.031-.145-.029-.147-.03-.146-.03-.146-.03-.145-.03-.146-.029-.147-.03-.146-.03-.146-.03-.145-.029-.146-.029-.146-.029.207-1.591.146.03.146.029.148.03.146.03.146.03.147.03.146.029.148.03.147.03.146.03.146.03.148.03.147.031.147.03.146.03.147.03.148.031.146.03.147.031.147.03.148.032.147.031.146.03.147.031.146.031.148.031.147.031.147.031.146.032.149.031.146.031.146.031ZM73.947,50.2l-.294,1.571-.169-.043-.168-.042-.17-.043-.17-.042-.171-.043-.17-.042-.171-.042-.172-.043-.17-.042-.171-.042-.173-.042-.173-.042-.171-.042-.173-.042-.173-.042-.172-.041-.174-.041-.175-.042-.172-.041-.177-.042-.174-.042-.174-.041-.175-.042-.174-.04-.176-.041-.176-.042-.176-.041-.177-.041-.175-.04-.176-.041-.177-.041-.177-.041.256-1.579.178.041.177.041.178.04.178.042.177.041.176.041.177.042.176.04.177.042.175.042.177.042.176.042.174.041.176.042.174.042.175.041.176.043.173.041.174.042.175.043.172.042.173.042.173.043.174.042.171.043.173.043.171.042.171.043.171.042.17.043.172.043.17.043Zm12,3.533-.463,1.519-.169-.06-.17-.06-.17-.059-.174-.06-.174-.06-.174-.06-.177-.06-.178-.06-.177-.059-.18-.06-.181-.06-.182-.059-.183-.06-.183-.059-.186-.059-.187-.06-.188-.06-.187-.059-.189-.058-.191-.06L81.691,54l-.193-.06-.193-.059-.194-.058-.2-.06-.2-.059-.2-.059-.2-.058-.2-.059-.2-.059-.2-.058-.2-.059.355-1.554.2.059.2.06.2.06.2.059.2.06.2.06.2.059.2.06.2.06.2.06.195.06.2.06.193.06.193.06.192.061.191.06.189.061.188.06.189.061.186.061.186.061.184.061.183.06.183.061.181.061.18.061.179.062.177.061.177.061.176.061.174.062Z"/><path class="cls-1" d="M3.7,36.855l-.615-.08.085-1.61.615.081L3.7,36.855Zm17.07.469-.061,1.613-.132-.016-.132-.015-.132-.016-.132-.015-.132-.016-.132-.015-.133-.016-.131-.015-.135-.016-.13-.016-.133-.015-.134-.016-.131-.016-.132-.015-.134-.016-.131-.016-.133-.015-.134-.015-.133-.016-.13-.016-.133-.015-.135-.016-.133-.016-.132-.016-.131-.016-.133-.015-.135-.016L17,38.5l-.133-.015-.134-.016-.132-.016-.132-.016.063-1.613.133.016.133.016.132.016.133.015.134.016.13.016.133.015.135.016.133.016.133.016.13.015.133.016.134.016.133.015.131.016.132.015.135.016.131.016.132.015.134.016.131.016.133.015.134.016.131.016.131.015.133.016.132.015.132.016.132.015.132.016.132.015.132.016ZM37.8,39.347l-.074,1.612-.358-.045-.361-.044-.365-.046-.367-.045-.37-.045-.375-.046-.377-.046-.379-.045-.384-.047-.386-.047-.387-.046-.391-.047-.394-.047-.4-.048-.4-.048-.4-.047-.4-.048-.407-.048-.408-.048-.41-.049-.413-.048-.414-.05-.416-.049-.418-.049-.42-.049-.423-.049-.423-.05-.425-.05-.426-.05-.429-.05-.429-.05-.431-.051L25,37.819l.431.05.43.051.428.05.426.05.426.05.423.05.422.049.42.049.419.049.417.049.414.049.413.049.411.049.408.048.406.048.4.048.4.047.4.048.4.048.394.046.392.047.39.047.386.047.383.046.381.047.378.046.373.046.372.045.369.045.365.046.362.044.359.045Zm5.6.732-.1,1.609-.117-.017-.119-.016-.12-.016-.119-.017-.121-.017-.121-.017-.122-.015-.124-.018-.121-.016-.124-.017-.126-.016-.126-.017-.126-.017-.129-.017-.127-.018-.126-.016L41.2,41.4l-.13-.018-.13-.016-.133-.018-.132-.018-.132-.016-.131-.018-.135-.017-.136-.018-.134-.017-.135-.018-.137-.017L39.6,41.2l-.138-.017-.137-.018-.14-.018.078-1.611.14.018.139.018.139.018.136.017.137.017.137.018.138.017.134.018.133.017.136.018.134.018.132.017.13.017.132.017.13.018.129.016.131.018.129.017.126.017.127.017.127.017.124.017.125.016.127.017.122.017.123.017L42.8,40l.122.016.121.017.118.016.12.016.119.017Zm12,2.029L55.208,43.7l-.129-.025-.127-.024-.131-.025-.13-.025-.127-.024-.13-.025-.127-.024-.129-.024-.129-.024-.129-.024-.129-.025-.127-.024-.129-.023-.129-.024-.129-.025-.126-.023-.13-.024-.128-.024-.126-.023-.129-.023L52.51,43.2l-.128-.023-.127-.023-.128-.023L52,43.1l-.128-.022-.127-.024-.127-.022-.127-.023-.126-.023-.128-.022-.128-.023.166-1.6.128.023.127.022.13.023.127.023.13.023.128.024.128.023.128.023.128.023.129.023.129.024.128.023.128.024.131.024.128.024.128.023.13.025.129.023.129.024.129.025.13.023.129.025.129.024.129.024.129.024.131.025.129.025.131.025.13.025.127.024.131.025.13.025Zm8.052,1.665-.242,1.583-.143-.032-.141-.031-.142-.031-.143-.032L62.5,45.2l-.143-.031-.141-.031-.143-.031-.141-.031-.143-.03-.142-.031-.143-.031-.143-.031-.141-.03-.143-.03-.141-.031-.143-.03-.143-.031-.142-.029-.143-.031-.141-.029-.143-.03-.141-.03-.143-.029-.142-.03-.143-.03-.142-.03-.141-.029-.143-.029-.141-.029-.143-.029-.142-.03.213-1.589.142.03.143.029.144.03.142.029.145.029.142.03.143.03.143.03.142.029.145.031.142.03.144.03.143.031.143.03.143.03.142.03.145.031.143.03.144.031.143.031.143.031.142.031.143.03.144.032.143.03.144.032.143.032.143.031.143.031.142.032.144.032.143.031Zm10.9,2.661L74.031,48l-.205-.055-.2-.054-.2-.054-.2-.055-.2-.054-.2-.054-.206-.054-.206-.054-.206-.054-.2-.052-.208-.054-.207-.053-.206-.053-.207-.053-.208-.053-.207-.053-.208-.052-.207-.052-.208-.052-.208-.052-.208-.052-.209-.051-.209-.052-.208-.052-.208-.051-.21-.051-.209-.051-.208-.05-.211-.051-.21-.05-.209-.051-.209-.05.27-1.576.211.05.212.051.21.051.211.051.211.051.211.051.21.052.211.051.211.052.209.052.21.052.21.052.21.052.209.053.209.053.21.053.209.053.208.053.209.052.209.054.207.054.208.053.209.054L72.7,46l.207.054.207.054.209.055.206.054.206.055.207.055.207.055.2.055ZM85.19,49.678l-.431,1.531-.173-.058-.173-.058-.175-.057-.174-.059-.174-.056-.176-.058-.174-.058-.175-.056-.178-.057-.177-.058-.175-.056-.177-.057-.179-.057-.177-.056-.178-.056-.18-.057-.178-.056-.179-.056-.181-.057-.18-.056-.179-.055-.181-.056-.182-.055-.181-.055-.181-.056-.182-.055-.183-.055-.182-.056-.183-.054-.183-.055-.184-.054-.184-.055.366-1.551.186.056.184.054.186.056.185.056.185.055.183.055.185.056.184.056.183.056.182.057.182.055.184.057.182.057.181.056.182.056.181.058.18.056.18.058.181.057.179.057.179.057.18.058.178.058.176.057.179.058.179.058.176.058.178.059.176.058.174.058.178.059Z"/><path class="cls-1" d="M11.229,33.008l-.006,1.619-.3-.026-.3-.026-.3-.025-.3-.027-.3-.026-.3-.027-.3-.027-.3-.028-.306-.027L8.2,34.36l-.307-.027-.308-.028-.309-.028-.31-.029-.311-.029-.311-.029-.312-.029-.313-.029-.313-.03-.314-.029-.315-.03-.315-.03-.316-.031-.315-.03-.317-.031L3.2,33.89l-.317-.032-.317-.031L2.245,33.8l-.319-.032-.317-.032-.32-.032.033-1.616.317.032.318.031.317.032.317.031.317.032.316.031.316.031.315.03.316.031.314.03.314.03.314.03.313.03.312.029.312.029.311.029.311.029.31.029.309.028.308.028.307.028.308.028.306.028.3.027.3.027.3.027.3.027.3.026.3.027.3.026.3.026.3.025Zm10.557.841L21.8,35.47l-.141-.01-.143-.011-.143-.011-.142-.01-.146-.011-.146-.011L20.8,35.4l-.148-.011-.149-.01-.149-.012-.149-.011-.152-.011-.151-.012-.154-.011-.153-.012-.153-.012-.154-.011-.155-.012-.16-.013-.157-.012-.156-.012-.16-.011-.16-.014-.16-.012-.161-.013-.161-.012-.163-.013-.164-.013-.163-.012L17.2,35.12l-.165-.013-.167-.014-.006-1.619.166.013.165.013.164.013.164.012.163.014.161.012.162.013.162.012.16.013.159.012.157.012.16.012.157.013.153.011.157.012.155.012.154.011.153.012.152.012.152.011.149.011.15.011.149.012.147.011.148.011.147.011.145.01.144.011.144.011.144.011.14.01.142.01ZM35.98,35.067l-.047,1.616-.327-.036-.329-.035-.327-.036-.328-.033-.329-.035-.329-.034-.329-.033-.329-.034-.33-.032-.33-.032-.329-.033-.331-.031-.331-.032-.33-.031-.331-.03-.332-.031-.331-.029L30,36.1l-.333-.029-.331-.029L29,36.01l-.334-.028-.334-.028L28,35.927,27.67,35.9l-.334-.027L27,35.848l-.334-.026-.335-.026L26,35.771l-.335-.024-.334-.025-.02-1.62.337.024.337.025.336.025.337.025.335.026.337.027.335.026.336.027.335.028.334.028.335.027.335.029.335.029.334.03.333.029.334.03.334.03.332.032.334.031.332.031.333.032.332.032.331.033.332.033.332.033.331.034.33.034.331.034.33.035.331.035.328.036.331.035Zm19.112,2.738-.167,1.6-.444-.079-.446-.078-.446-.078-.448-.076-.449-.077-.449-.076-.451-.075-.452-.075-.452-.074-.454-.073-.454-.073-.456-.072-.456-.072-.458-.071-.458-.07-.459-.07-.46-.069-.461-.068-.461-.069-.463-.066-.463-.067-.465-.067-.465-.064-.465-.065-.467-.064-.468-.063-.468-.063-.469-.062-.47-.061-.47-.06-.471-.06-.472-.059.073-1.612.475.059.474.06.473.061.473.062.472.062.471.063.471.064.469.064.469.065.468.066.467.066.466.067.466.068.465.068.463.069.463.069.462.071.461.071.46.071.46.073.458.072.457.073.456.074.457.074.454.076.454.075.452.077.452.077.45.077.45.078.448.079.448.079Zm8.4,1.631-.223,1.587-.138-.029L63,40.965l-.137-.028-.137-.029-.137-.029-.137-.028-.135-.028-.138-.029-.137-.028-.138-.028-.138-.028-.135-.028-.138-.028-.139-.029-.138-.027-.138-.029-.137-.027-.139-.028-.14-.028-.138-.028-.136-.027-.142-.027-.139-.028-.138-.028-.14-.027-.139-.028-.137-.027-.14-.027-.141-.027-.14-.027-.14-.028-.14-.027.193-1.592.142.027.14.027.141.027.14.028.14.027.142.028.14.028.139.027.142.028.139.027.138.028.141.028.141.028.137.028.14.028.14.028.138.029.139.027.138.029.139.027.14.029.138.028.138.029.137.028.138.029.14.028.137.03.137.028.137.029.137.028.139.029.136.029Zm7.19,1.627-.277,1.575-.116-.028-.114-.028-.118-.028-.116-.028-.115-.027-.116-.028-.119-.029-.116-.027-.115-.028-.118-.027-.115-.028-.117-.027-.119-.028-.118-.028-.115-.027-.117-.028-.118-.027-.118-.028-.119-.027-.118-.028-.118-.027-.116-.027L67.715,42l-.119-.028-.119-.027-.118-.027-.119-.027-.119-.027L67,41.84l-.118-.027-.119-.027-.12-.027.249-1.582.12.028.119.026.121.028.12.027.119.028.12.027.119.028.119.027.119.027.119.027.121.028.119.028.118.027.118.028.118.027.119.028.118.027.12.029.118.028.116.027.117.027.12.028.117.028.119.029.118.028.115.028.116.027.119.029.117.028.115.027.118.029.117.028Zm4.047,1.022-.311,1.566-.116-.03-.116-.031-.117-.03-.116-.031-.115-.029-.117-.03-.117-.031-.117-.03-.117-.03-.117-.03-.118-.031-.115-.029-.12-.031-.117-.03-.117-.03-.117-.029-.119-.03-.118-.03L72.2,43.08l-.12-.03-.121-.03-.116-.03-.12-.029-.119-.03-.119-.03-.12-.029-.117-.03-.122-.029-.12-.03-.118-.029-.12-.029-.121-.03.28-1.574.121.03.12.029.123.03.121.03.118.03.122.029.12.031.12.029.119.03.119.029.123.031.116.029.12.03.121.03.118.03.119.03.119.031.12.03.119.031.116.029.12.031.118.03.118.03.118.031.117.03.117.03.117.03.12.032.117.03.116.031.118.03.116.031Zm9.532,2.758-.4,1.539-.163-.052-.162-.052-.165-.052-.164-.052-.163-.051-.167-.052-.165-.052-.165-.051-.165-.051-.167-.051-.169-.052-.166-.052-.168-.05-.169-.052-.168-.051-.168-.051-.17-.051-.169-.05-.171-.051-.171-.051-.171-.051-.17-.051-.172-.05-.172-.05-.174-.051-.172-.05L79.317,45l-.172-.05-.175-.05L78.8,44.85l-.173-.05-.176-.049.348-1.557.176.051.177.051.176.051.176.05.176.051.175.05.174.052.173.051.174.05.174.051.173.052.174.051.171.051.172.051.172.052.171.051.171.052.171.051.169.052.17.052.17.052.166.051.169.052.169.053.168.052.167.052.165.052.168.052.165.053.165.052.166.053Z"/><path class="cls-1" d="M22.177,30.24l-.044,1.618-.615-.063-.616-.063-.618-.062-.618-.061-.621-.062-.621-.06-.624-.06-.625-.061-.625-.059-.628-.059-.629-.059-.63-.059-.632-.057-.632-.058-.635-.057-.635-.056-.638-.057-.638-.056-.64-.055-.641-.055-.643-.055-.643-.055-.646-.053-.647-.054-.648-.053L5.7,30.356,5.045,30.3l-.653-.052L3.74,30.2l-.655-.051L2.429,30.1l-.658-.051V28.424l.659.051.657.051.656.051.655.052.653.052.652.053.651.053L7,28.84l.648.054.647.054L8.942,29l.644.055.642.055.642.055.64.057.639.056.636.056.636.058.634.058.634.058.631.058.631.059.628.059.628.06.627.06.624.061.623.061.622.061.621.062.619.062.618.063.616.063Zm7.815.856-.066,1.615-.134-.015-.134-.016-.134-.015-.134-.016-.132-.015-.134-.015-.137-.016-.133-.016-.133-.015-.135-.015-.134-.015-.134-.015-.135-.016-.134-.015-.135-.015-.135-.015-.133-.016-.135-.014-.137-.016-.133-.015-.135-.015-.137-.015-.134-.015-.135-.015-.135-.015-.136-.015-.135-.015-.134-.014-.138-.016-.136-.015-.134-.014-.137-.015.055-1.617.135.015.138.015.135.015.135.014.137.016.136.015.135.015.136.015.135.015.138.015.134.015.135.015.136.015.134.015.135.015.136.015.135.015.135.016.135.015.135.015.135.015.134.016.134.015.136.016.135.016.132.014.134.016.136.015.134.016.134.015.134.016.134.016Zm24.893,3.575-.17,1.6L54.3,36.2l-.414-.073-.415-.071-.417-.072-.417-.071-.417-.071-.42-.071-.42-.071-.421-.069-.421-.07-.423-.069-.424-.068-.425-.068-.427-.069-.426-.068-.428-.067-.428-.067-.43-.066-.43-.066-.432-.066-.433-.066-.434-.065-.434-.065-.435-.065-.437-.064-.438-.064-.437-.064-.439-.063-.441-.063-.44-.063-.443-.061-.443-.062.106-1.611.445.062.444.063.442.062.443.063.44.064.441.064.439.064.439.065.436.064.437.066.435.065.435.066.433.066.433.067.431.067.431.067.43.068.429.068.427.068.427.069.426.069.426.069.424.07.423.07.422.071.421.07.421.072.418.072.419.072.417.072.417.072.415.074Zm8.587,1.644-.221,1.59-.133-.027-.132-.028-.131-.027-.132-.027-.131-.027-.133-.026-.135-.028-.133-.027-.131-.027-.134-.027-.133-.027-.132-.026-.133-.027-.134-.027-.136-.027-.132-.027-.132-.025-.136-.027-.135-.027-.132-.026-.135-.026-.135-.027-.134-.026-.135-.027-.134-.026-.134-.026-.137-.027-.134-.026-.133-.025-.138-.027-.136-.026-.135-.026.194-1.6.137.027.136.026.134.025.138.027.137.027.134.025.136.027.137.026.135.027.135.026.134.027.136.026.136.027.134.027.134.026.135.027.137.028.131.026.135.027.134.026.135.027.134.028.133.026.136.028.133.027.131.027.133.027.135.028.133.027.135.028.132.027.132.028Zm6.594,1.459-.268,1.58-.113-.027-.113-.026-.114-.027-.114-.027-.112-.026-.114-.026L69,39.168l-.112-.026-.115-.026-.114-.027-.112-.026-.116-.026-.115-.027-.113-.025-.115-.027-.115-.026-.114-.026-.116-.026-.112-.026-.115-.025L67.4,38.8l-.113-.026-.116-.025-.116-.026-.113-.025-.118-.027-.116-.026-.114-.025-.116-.025-.117-.026-.116-.026-.115-.025.241-1.587.117.027.116.025.117.026.116.025.118.026.116.027.115.025.118.026.115.026.116.026.118.026.113.026.116.025L68,37.3l.116.026.115.027.115.026.116.026.116.027.115.026.113.027.117.026.114.026.114.027.117.027.113.026.114.027.116.027.114.027.114.026.114.027.114.027Zm4.882,1.209-.309,1.571-.114-.03-.118-.031-.115-.03-.114-.029-.115-.03-.116-.03-.117-.03-.114-.029-.117-.03-.117-.029-.116-.03-.116-.03-.115-.029-.117-.029-.119-.03-.115-.03-.115-.028-.12-.03-.117-.029-.115-.029-.118-.029-.117-.029-.118-.029-.118-.029-.116-.029-.12-.029-.119-.03-.116-.028-.117-.028-.118-.029-.121-.029-.118-.028.278-1.579.12.03.117.028.119.028.121.03.121.029.118.03.117.028.12.03.118.029.118.029.119.029.117.029.12.03.119.03.115.029.12.029.119.031.115.029.117.029.119.03.117.03.117.03.117.03.116.029.119.03.115.03.116.03.118.03.118.031.116.031.114.029.117.03ZM83.6,41.467l-.4,1.544-.158-.049-.159-.05-.159-.05-.159-.05-.159-.049-.16-.049-.159-.049-.16-.049-.161-.049-.16-.049-.161-.049-.159-.048-.162-.049-.163-.049-.16-.048-.163-.049-.161-.047-.164-.048-.163-.049-.161-.047-.164-.048-.164-.048-.163-.047-.164-.048-.164-.047-.164-.047-.166-.048-.164-.046-.165-.047-.166-.048-.165-.046-.166-.047.342-1.561.168.047L78.7,40l.166.047.166.047.167.048.166.047.167.048.165.048.166.048.166.048.164.048.164.048.166.049.164.048.163.048.165.049.163.049.164.049.163.049.162.048.165.05.161.05.163.049.162.049.161.05.162.05.161.05.162.05.16.05.16.05.161.05Z"/><path class="cls-1" d="M21.838,27.25l-.027,1.62-.577-.054-.579-.053-.579-.052-.581-.053-.583-.052-.584-.052-.585-.051-.587-.051-.588-.051-.59-.05-.591-.05-.592-.049L14.2,28.2l-.6-.049-.6-.049-.6-.048-.6-.048-.6-.048-.6-.047-.6-.047L9.4,27.82,8.8,27.774l-.608-.045-.609-.046-.611-.045-.611-.045-.613-.045L5.129,27.5l-.616-.045L3.9,27.416l-.618-.044-.62-.043-.014-1.623.621.043.619.044.619.043.617.045.616.044.614.044.613.046.612.045.61.046.609.046L9.4,26.2l.606.047.605.047.6.048.6.047.6.048.6.048.6.049.6.049.595.049.594.05.593.05.59.05.59.051.588.051.586.052.586.051.584.053.582.052.581.053.581.054.578.053Zm8.426.841-.05,1.617-.133-.014-.136-.014-.134-.015-.132-.014-.134-.014-.135-.014-.134-.015-.133-.013-.134-.014-.136-.015-.135-.014-.133-.014-.135-.013-.136-.015L28.2,29.5l-.135-.014-.135-.014-.136-.014-.135-.014-.134-.014-.137-.013-.135-.015-.134-.013-.138-.014-.136-.014-.134-.013-.136-.014-.136-.014L26.3,29.3l-.135-.014-.137-.014-.136-.013.038-1.619.136.014.137.014.137.013.136.014.136.013.136.014.138.014.135.014.135.013.137.014.137.014.133.014.137.013.136.015.135.013.136.014.135.014.137.015.133.013.135.014.137.015.135.014.132.013.135.014.136.015.134.014.135.014.135.014.135.015.134.014.133.014.134.015Zm20.061,2.561L50.2,32.26l-.257-.039-.257-.039-.258-.038L49.17,32.1l-.258-.038-.26-.038L48.4,31.99l-.26-.037-.26-.038-.26-.037-.261-.038-.261-.038-.26-.037-.263-.037-.262-.038-.261-.037-.263-.036-.264-.037-.263-.036-.264-.037-.265-.037-.265-.036L44.2,31.4l-.265-.035-.266-.036L43.4,31.29l-.266-.035-.268-.036-.267-.036-.267-.035-.268-.035-.269-.035.091-1.613.269.035.269.035.269.036.269.036.267.036.268.035.267.036.268.036.267.037.266.036.266.037.264.036.265.037.265.036.264.037.264.037.265.037.263.038.262.037.262.038.263.037.261.038.261.038.261.038.26.038.261.038.26.038.259.039.26.039.257.039.259.038.257.039Zm4.335.683-.149,1.6-.118-.019-.117-.02-.115-.019-.117-.019-.118-.019-.117-.019-.117-.019-.118-.019-.117-.019-.118-.018-.119-.02-.116-.019-.119-.018-.118-.019-.119-.019-.118-.019-.116-.018-.121-.019-.119-.019-.116-.018-.119-.019-.119-.018-.119-.018-.12-.019-.118-.019-.119-.018-.12-.019-.12-.018-.119-.019-.118-.018-.119-.018-.12-.018.129-1.608.12.019.119.018.122.019.119.018.12.019.12.018.12.019.118.018.119.019.12.018.119.019.119.018.121.02.119.019.116.018.122.019.118.019.119.018.118.019.118.019.121.02.116.018.118.018.119.02.119.019.118.019.117.019.118.019.117.02.12.019.117.019.117.019ZM63.419,32.9l-.2,1.595-.125-.024-.13-.025-.127-.025-.123-.023-.128-.025-.128-.024-.128-.025L62.2,34.3l-.128-.024-.131-.025-.126-.024-.126-.023-.13-.025-.129-.024-.127-.024-.128-.024-.129-.024-.129-.024-.129-.024-.127-.023-.13-.024-.131-.024-.127-.024-.13-.023-.13-.024-.128-.023-.132-.024-.13-.024L59.5,33.8l-.13-.023-.13-.024-.13-.023.174-1.6.131.023.131.024.13.023.132.024.13.024.129.023.131.024.13.024.13.023.132.025.128.023.13.024.131.024.129.024.129.024.129.024.129.024.131.025.128.024.127.024.131.024.13.025.126.024.128.024.131.025.128.025.126.024.128.024.131.025.127.025.125.024.129.025Zm5.974,1.233-.24,1.587-.109-.024-.111-.024-.11-.024-.11-.024L68.6,35.6l-.109-.024-.11-.023-.112-.025-.11-.023-.11-.024-.111-.024-.108-.022-.113-.024-.111-.024-.109-.023-.112-.023-.111-.024-.111-.023-.112-.023-.112-.024-.109-.023-.112-.023-.114-.024-.109-.023-.113-.022-.112-.024-.112-.023-.113-.023-.112-.023-.113-.024-.11-.022L65.6,34.97l.215-1.592.112.023.115.023.114.024.112.022.113.024.112.023.112.023.113.023.115.024.109.023.112.023.115.024.112.023.111.024.112.023.111.024.112.023.114.024.111.024.11.023.112.024.112.024.111.024.112.024.109.024.111.023.112.025.111.024.11.024.11.024.11.024.111.024Zm5.735,1.337-.289,1.575-.113-.028-.113-.028-.111-.027-.113-.028-.114-.027-.113-.028-.115-.028-.113-.028-.113-.028-.112-.027-.114-.027-.114-.028-.114-.027-.115-.028-.112-.027-.115-.027-.114-.027L72.8,36.55l-.116-.027-.115-.028-.113-.027-.115-.026-.117-.028-.114-.026-.113-.026-.118-.028-.116-.027-.114-.026-.116-.027-.116-.026L71.3,36.2l-.116-.027.256-1.582.118.026.116.027.117.027.116.026.118.028.117.027.113.026.118.027.118.028.114.027.116.027.117.028.114.027.116.027.116.028.114.027.115.027.117.028.115.028.114.027.115.028.114.027.117.028.115.028.113.028.113.028.115.027.113.029.113.028.116.027.114.029.113.028Zm7.677,2.071L82.442,39.1l-.15-.043-.149-.044L82,38.966l-.149-.043-.151-.044-.149-.043-.149-.043-.15-.043-.149-.042-.151-.043-.15-.042-.152-.043-.15-.042-.152-.043-.151-.042-.152-.043-.151-.042-.153-.041-.153-.043-.152-.042L79.28,38.2l-.153-.042-.152-.042-.155-.041-.153-.042-.154-.041-.154-.041L78.2,37.91l-.155-.041-.155-.041-.154-.041-.156-.041.314-1.569.157.041.157.042.156.042.155.041.156.041.155.042.156.042.155.042.154.041.156.043.155.042.154.042.154.042.154.043.153.042.155.043.153.043.152.042.153.043.152.043.153.043.151.042.153.044.152.044.151.043.152.043.152.044.149.043.15.043.153.045.149.044Z"/><path class="cls-1" d="M8.4,23.524l.036,1.625-.146-.008-.147-.009-.147-.008-.147-.008L7.7,25.108,7.553,25.1l-.147-.008-.147-.009-.147-.008-.146-.008-.147-.008-.149-.008-.148-.008-.146-.008-.147-.008-.15-.008-.146-.008L5.785,25,5.637,25l-.148-.008-.148-.008-.149-.007-.148-.009L4.9,24.956l-.149-.008L4.6,24.94l-.149-.008L4.3,24.925l-.149-.008-.147-.008L3.856,24.9l-.149-.007-.045-1.625.149.007.149.008.151.008.149.008.147.007.149.008.15.008.149.008L5,23.338l.148.009.148.007.149.008.148.008.148.008.148.008.149.008.147.008.148.008.149.008.147.008.146.008.147.008.15.008.147.008.147.009.147.008.147.008.147.008.147.008.147.008.147.009.147.008Zm22.13,1.559L30.509,26.7l-.134-.012-.134-.011-.134-.012-.135-.012-.135-.012-.135-.011-.135-.012-.133-.012L29.3,26.6l-.136-.011-.136-.013-.134-.011-.134-.011-.136-.012-.134-.011-.136-.011-.137-.012L28.08,26.5l-.134-.011-.136-.011-.138-.012-.134-.011L27.4,26.44l-.136-.011-.135-.011-.138-.011-.136-.011-.135-.011-.138-.011-.137-.012-.135-.011-.138-.01.006-1.622.136.011.139.011.136.011.135.011.138.011.137.011.135.011.138.011.136.011.136.011.139.012.134.011.136.011.137.012.136.012.134.01.136.011.137.012.136.012.135.011.137.012.135.012.134.011.136.012.136.011.135.012.135.012.134.011.135.012.135.012.134.011.136.012Zm15.923,1.683-.083,1.614-.117-.015-.118-.014-.116-.015-.116-.015-.117-.014-.12-.015-.117-.014-.115-.015-.118-.014-.118-.015-.118-.014-.117-.015-.119-.014-.117-.015-.116-.013-.118-.015-.118-.014-.12-.015-.119-.014-.116-.014-.117-.014-.118-.014-.12-.014-.119-.014-.117-.014-.119-.014-.121-.014-.116-.014-.117-.013-.122-.014-.119-.015-.118-.013.065-1.616.121.014.119.014.117.013.121.015.121.014.117.014.119.014.121.014.119.014.117.014.118.014.12.014.121.014.118.015.117.014.118.014.118.014.12.015.118.015.118.014.118.014.118.015.117.014.118.015.12.014.117.015.116.015.117.014.12.015.117.014.117.015.118.015Zm7.985,1.1-.125,1.608-.114-.018-.115-.017-.115-.017-.114-.017-.115-.018-.113-.016-.115-.017-.117-.017-.115-.017-.113-.017-.116-.017-.114-.016-.115-.017-.117-.017-.116-.017-.113-.016-.116-.017-.116-.017-.117-.016-.115-.017-.116-.016-.116-.017-.115-.016-.115-.017-.117-.016-.116-.016L51.2,29.02,51.082,29l-.117-.016-.114-.016-.117-.016-.118-.016.1-1.611.116.016.117.016.119.016.117.017.116.016.116.017.117.016.117.016.116.017.118.016.116.017.117.016.116.017.115.017.116.017.117.016.118.017.115.017.114.016.116.017.117.017.115.017.118.017.115.018.114.017.115.016.117.018.115.017.116.017.114.018.115.016.115.018Zm8.94,1.5-.185,1.6-.121-.023-.123-.022-.123-.023-.122-.022-.122-.023-.121-.022-.123-.022-.124-.023-.123-.022-.123-.022-.123-.023-.121-.022-.124-.021-.124-.023-.123-.021-.124-.023-.122-.021-.124-.022-.124-.022-.124-.021-.125-.022-.122-.022-.124-.021-.126-.022-.123-.021-.123-.022-.126-.021-.125-.022-.123-.021-.125-.021-.125-.022-.125-.02.157-1.6.126.021.125.022.125.021.127.021.125.022.123.021.127.021.126.023.124.021.124.022.126.022.125.021.124.022.124.022.124.022.126.022.124.022.124.022.123.023.124.021.126.023.124.023.123.022.123.022.123.023.123.022.126.023.123.023.122.022.123.023.123.022.123.023Zm5.366,1.069-.229,1.589L68.407,32l-.107-.023-.105-.022-.106-.022-.107-.023-.107-.022-.1-.022-.107-.022-.109-.023-.1-.021-.108-.022-.107-.022-.106-.022-.108-.022-.105-.022-.107-.022-.108-.021-.107-.022-.108-.022-.107-.022-.108-.022-.108-.021-.105-.022-.108-.021-.107-.022-.107-.02-.11-.022-.108-.022-.106-.021-.109-.021-.108-.021-.108-.022.2-1.594.109.021.108.021.109.022.11.021.109.022.106.021.111.022.108.022.108.021.11.022.108.022.108.022.108.022.108.021.107.022.107.022.108.022.109.022.108.023.107.021.107.023.108.021.109.023.105.022.107.022.109.023.107.022.106.022.108.023.108.023.106.023.107.022Zm6.513,1.494-.29,1.575-.109-.028-.11-.027-.108-.027-.109-.026-.113-.028-.107-.027-.108-.025-.113-.028-.11-.027-.109-.026-.11-.027-.108-.026-.11-.026-.113-.027-.109-.026-.11-.027-.111-.026-.109-.026L72.877,33l-.111-.026-.111-.026-.111-.026-.111-.027-.109-.025-.112-.026-.112-.026-.111-.026-.112-.025-.11-.026-.112-.026-.112-.025-.111-.025.255-1.584.112.026.113.026.112.026.114.025.112.027.112.025.112.027.111.025.114.027.112.026.112.026.111.026.112.026.111.027.113.026.111.027.111.026.113.027.109.027.111.026.113.027.11.027.113.027.11.027.109.026.112.028.112.028.108.027.111.026.111.028.11.028.111.027Zm6.782,1.831-.362,1.555-.14-.041-.14-.041-.139-.04-.14-.041-.14-.04-.141-.04L80.7,35.03l-.141-.04-.141-.04-.142-.04-.14-.04-.14-.039-.142-.04-.142-.04-.142-.04-.141-.039-.141-.039-.142-.039L79,34.555l-.143-.039-.142-.039-.142-.039L78.43,34.4l-.143-.039-.144-.039L78,34.284l-.142-.039-.142-.037-.145-.038-.144-.038-.144-.039-.144-.037.312-1.57.146.039.145.038.144.038.145.038.146.039.146.039.144.039.143.039.145.038.145.04.145.04.144.039.142.039.144.039.144.039.143.04.144.041.143.039.142.04.143.04.144.04.143.041.142.04.142.041.141.041.143.04.142.041.141.041.142.04.143.043.141.041Z"/><path class="cls-1" d="M9.335,20.537,9.4,22.163l-.132,0-.131-.006-.131,0-.132-.006-.13,0-.132,0-.133-.005-.132,0-.13,0-.132-.005-.132,0-.132,0-.132,0-.132-.005-.132,0-.132-.005-.133,0-.132,0-.132,0-.131-.005-.132,0L6.5,22.054l-.133,0-.131,0-.133,0-.132,0-.133,0-.135,0-.131,0-.133-.005-.134,0-.133,0L5.1,20.381l.133,0,.134,0,.133,0,.134,0,.132,0,.133,0,.132.005.133,0,.134,0,.133.005.131,0,.132,0,.135,0,.132,0,.133.005.132,0,.133,0,.131.005.132,0,.133,0,.132.005.132,0,.131,0,.134,0,.132.005.13,0,.131,0,.133,0,.132.005.132,0,.131.006.131,0Zm21.49,1.191.006,1.623-.136-.01-.135-.01-.133-.01-.135-.01-.135-.01-.135-.009-.135-.01-.136-.01-.135-.01-.134-.01-.136-.009-.137-.01-.134-.01-.137-.009L28.8,23.2l-.136-.009-.136-.01-.134-.009-.136-.009-.138-.01-.137-.009-.135-.01-.136-.009-.137-.009-.137-.009-.135-.009-.136-.009-.139-.01-.137-.009-.135-.009-.137-.008-.137-.01-.02-1.624.137.01.137.008.139.01.137.009.135.009.137.009.138.01.137.009.136.009.137.01.138.009.137.01.134.009.137.009.138.009.136.01.136.009.136.01.136.01.137.009.134.01.136.009.137.01.135.01.136.01.135.01.135.009.135.01.136.01.137.01.135.01.134.01ZM47.2,23.261l-.065,1.615-.114-.012-.116-.014-.115-.013-.113-.013-.113-.013-.115-.013-.116-.013-.115-.013-.114-.013-.114-.012-.117-.014-.114-.013-.113-.012L45.53,24.7l-.115-.013L45.3,24.67l-.116-.012-.115-.013-.118-.013-.116-.013-.112-.012-.116-.012-.118-.012-.116-.013-.116-.012-.114-.013-.116-.012-.119-.013-.114-.012-.116-.012-.117-.013-.116-.012.047-1.617.117.012.117.012.116.012.119.013.114.013.116.011.119.013.116.013.116.012.114.013.116.012.12.013.116.013.114.012.116.012.116.013.118.013.115.013.113.012.118.013.117.013.113.013.116.013.117.013.115.013.113.013.115.012.117.014.117.013.114.014.114.012.115.014Zm7.012.887-.1,1.611L54,25.743l-.112-.015-.11-.016-.113-.015-.112-.015-.112-.015-.113-.015-.112-.015-.113-.016-.112-.015-.11-.015-.113-.015-.113-.015-.113-.015-.113-.015-.113-.015L52.2,25.5l-.111-.014-.113-.015-.115-.015-.114-.016-.111-.014-.113-.014-.112-.015-.113-.014-.116-.015-.114-.015-.111-.015-.114-.014-.116-.014-.112-.015-.114-.014.084-1.613.115.014.116.014.112.015.113.014.117.015.113.015.112.014.113.015.116.015.114.014.115.015.113.016.112.014.113.015.115.015.114.015.113.015.112.015.114.015.113.015.112.015.116.015.112.015.113.015.112.016.113.015.112.016.113.015.112.015.114.016.113.016.111.015Zm9.112,1.415-.165,1.6-.118-.02-.117-.021-.115-.019-.118-.021-.118-.02-.117-.02-.118-.02L62.222,27l-.116-.02-.118-.019-.12-.021-.116-.02-.117-.019-.12-.02-.118-.02-.117-.019-.118-.02-.119-.02-.118-.019-.119-.02-.117-.019-.119-.019-.12-.02-.118-.019-.119-.02-.117-.018-.12-.019-.119-.019-.12-.019-.119-.019-.12-.02-.118-.019.137-1.605.121.019.12.019.12.019.12.019.119.019.119.019.122.02.12.02.119.019.119.019.119.019.12.02.12.019.119.02.118.02.119.019.121.02.118.021.117.019.12.02.12.021.116.019.119.02.12.021.118.02.118.02.118.02.117.02.118.02.12.021.117.021.118.02Zm4.738.875-.2,1.594-.1-.02-.1-.02-.1-.02-.1-.019-.1-.02-.1-.02-.1-.019-.1-.02-.1-.019-.1-.02-.1-.019-.1-.019-.106-.02-.1-.019-.1-.02-.1-.019-.1-.019-.1-.02-.1-.018-.105-.02-.1-.019-.1-.019-.1-.019-.1-.019-.1-.019-.1-.018-.106-.02-.1-.018-.1-.019-.106-.019-.1-.019-.1-.018.175-1.6.105.019.107.019.1.019.1.019.106.019.1.019.1.018.106.02.1.019.1.019.106.019.1.02.1.019.106.019.1.02.1.019.1.02.1.019.1.02.1.019.1.019.105.02.1.02.1.019.1.02.1.02.1.02.1.019.1.021.1.02.1.019.1.021ZM75.318,28l-.268,1.58-.1-.024-.105-.025-.105-.024-.1-.025-.105-.024-.106-.025-.1-.024-.1-.024-.106-.024L74,29.336l-.106-.025-.1-.023-.105-.024-.105-.024-.107-.024-.105-.024-.1-.024-.107-.023-.1-.024-.106-.023-.106-.024-.105-.023-.108-.024L72.523,29l-.1-.023-.106-.023-.105-.023-.107-.023-.109-.024-.105-.023-.107-.022-.106-.024.235-1.588.108.024.107.023.109.023.1.023.107.024.109.023.107.024.109.024.106.024.1.023.108.024.107.024.107.023.106.024.106.024.109.024.105.024.107.024.106.024.105.024.108.025.106.024.105.024.106.025.106.024.107.025.105.024.1.025.106.024.1.025.106.024.106.026Zm5.82,1.477-.33,1.565-.128-.035-.127-.035-.13-.035-.129-.034-.129-.035-.129-.035-.129-.035-.13-.034-.129-.034-.129-.035-.13-.034-.13-.034-.129-.034L79,30.559l-.131-.035-.129-.033-.131-.034-.131-.033-.131-.034-.129-.033-.131-.033-.133-.034-.131-.034-.13-.033-.13-.032-.132-.033-.134-.034-.13-.032-.13-.032-.133-.033-.133-.033-.132-.033.284-1.576.134.033.132.033.133.032.135.034.134.034.131.032.132.033.134.034.134.034.132.033.13.033.133.034.134.034.131.034.131.034.131.033.133.035.131.034.131.034.133.035.131.035.13.034.132.034.131.036.129.034.132.035.13.035.131.035.129.035.129.035.132.035Z"/><path class="cls-1" d="M10.963,17.645l.064,1.626-.13-.005-.131-.006-.131-.005-.131,0-.128,0-.131-.005-.131,0-.133,0-.13,0-.13-.005-.131,0-.131,0L9.328,19.2l-.131,0-.131,0-.13,0-.132,0-.133,0-.131-.005-.131,0-.132,0-.133-.005-.13,0-.132,0-.131,0-.132,0-.132,0-.133,0-.132,0-.132,0-.132,0-.132,0L6.752,17.49l.133,0,.132,0,.132,0,.132,0,.133.005.132,0,.132,0,.133.005.131,0,.134.005.13,0,.131,0,.134,0,.131,0,.13,0,.132,0,.133,0,.131.005.132,0,.13,0,.132,0,.131.005.133,0,.131,0,.128.005.132,0,.131,0,.132,0,.131.005.131,0,.13.006.131,0ZM31.1,18.756l.007,1.623-.134-.01-.135-.009-.136-.01-.135-.01-.135-.01-.133-.01-.136-.009-.137-.01-.134-.01-.136-.009-.135-.01-.137-.009-.135-.01-.134-.009-.138-.009-.136-.01-.135-.009-.136-.01-.136-.009-.136-.009-.137-.009-.136-.01-.137-.009-.135-.009-.136-.008-.139-.01-.136-.009-.136-.009-.138-.009-.137-.009-.136-.009-.137-.009-.022-1.624.138.009.138.01.137.008.137.009.137.009.138.01.136.009.137.008.138.01.136.009.137.01.136.009.137.009.136.009.136.01.138.009.136.01.135.009.138.009.135.01.137.009.135.01.136.009.137.01.134.01.136.009.136.01.135.01.136.01.135.01.135.01.136.009ZM47.831,20.3l-.063,1.616-.112-.012-.113-.013-.11-.013-.113-.012-.115-.013-.112-.013-.111-.012-.113-.013-.113-.012-.11-.012-.114-.012-.115-.013-.112-.013-.112-.012-.114-.012-.113-.013-.113-.011-.114-.013-.112-.012-.114-.013-.111-.012-.114-.012-.114-.011-.116-.013-.113-.012-.113-.012-.114-.012L44.6,21.57l-.111-.012-.115-.011-.116-.012-.113-.012.045-1.619.116.013.112.011.114.012.116.013.114.011.114.013.116.011L45.11,20l.112.012.114.012.113.012.116.012.114.013.114.011.113.013.113.012.114.013.113.011.115.014.114.012.111.012.113.012.115.013.113.013.113.012.115.013.113.013.11.012.114.013.113.012.113.013.113.013Zm6.218.765-.095,1.612-.109-.015-.11-.014-.112-.015-.107-.014-.111-.014-.11-.015-.108-.014-.113-.014-.11-.015-.108-.014-.111-.014-.112-.014-.11-.015-.111-.014-.111-.014-.108-.014-.112-.013-.113-.015-.108-.014-.112-.013-.111-.014-.112-.014-.11-.014-.112-.014-.112-.014-.109-.014-.114-.013-.111-.014-.11-.014-.112-.014-.112-.013-.111-.014.076-1.614.112.014.112.013.112.014.113.013.112.015.11.013.113.014.112.014.111.014.112.014.111.013.111.014.112.014.114.015.108.014.111.013.114.015.11.014.111.014.111.014.111.015.111.014.113.014.11.015.109.014.112.014.111.015.11.014.113.015.108.015.11.014.111.015Zm9.235,1.373-.152,1.6-.113-.018L62.906,24l-.111-.018-.113-.019-.116-.018-.114-.02-.109-.017-.113-.018-.116-.019L62,23.855l-.112-.018-.114-.018L61.66,23.8l-.114-.017-.114-.019-.112-.017-.114-.018-.114-.018-.115-.018-.114-.018-.115-.018-.115-.018-.114-.018-.113-.018-.114-.018-.115-.018-.115-.017-.115-.018-.115-.018-.116-.018L59.6,23.48l-.117-.018.128-1.608.115.018.117.018.116.018.115.017.115.018.115.018.115.018.115.017.117.018.115.018.114.018.115.018.115.018.114.018.115.018.114.018.117.018.114.019.114.018.114.019.114.017.116.02.114.018.111.018.115.018.118.02.112.018.112.019.114.018.116.019.112.02.114.018Zm4.258.743-.181,1.6-.1-.018-.1-.018-.1-.019-.1-.017-.1-.018-.1-.018-.1-.017-.1-.019-.1-.018-.1-.017-.1-.017-.1-.019-.1-.017-.1-.018-.1-.017-.1-.018-.1-.017-.1-.018-.1-.017-.1-.017-.1-.018-.1-.017-.1-.018-.1-.017-.1-.018-.1-.017-.1-.016-.1-.018-.1-.017-.1-.017-.1-.018-.1-.017.16-1.6.1.017.1.017.1.017.1.018.1.017.1.017.1.018.1.018.1.017.1.017.1.018.1.017.1.018.1.017.1.018.1.018.1.018.1.017.1.018.1.018.1.017.1.018.1.019.1.017.1.018.1.017.1.019.1.018.1.018.1.019.1.017.1.018Zm7.782,1.572-.245,1.586-.1-.022-.1-.023-.1-.021-.1-.022-.1-.023-.1-.021-.1-.023-.1-.022-.1-.022-.1-.021-.1-.022-.1-.022-.1-.022-.1-.021-.1-.022-.1-.022-.1-.021-.1-.022-.1-.021-.1-.022-.1-.021-.1-.022-.1-.022-.1-.02-.1-.021-.1-.022-.1-.021-.1-.021-.1-.021-.1-.021-.1-.021-.1-.021.217-1.591.1.021.1.021.105.021.1.021.1.022.1.021.1.021.1.022.1.021.1.022.1.022.1.021.1.022.1.021.1.021.1.023.1.022.1.021.1.022.1.022.1.022.1.022.1.022.1.022.1.022.1.023.1.021.1.023.1.021.1.023.1.023.1.022Zm5.058,1.187-.291,1.575-.12-.03-.118-.029-.121-.029-.12-.03-.12-.03-.121-.03-.118-.029-.121-.029-.122-.029-.118-.029-.121-.029-.121-.03-.121-.029-.122-.029-.119-.028-.122-.029-.121-.029-.121-.029L77.8,26.96l-.12-.029L77.56,26.9l-.122-.029-.12-.028-.123-.028-.122-.029-.122-.028-.122-.028-.123-.028-.121-.029-.123-.027-.122-.029-.122-.027.254-1.584.124.029.122.028.124.028.124.028.123.028.123.029.123.029.122.028.123.028.124.029.122.029.122.028.124.029.122.03.122.029.122.029.121.028.124.03.122.029.121.029.122.029.121.03.123.029.121.03.121.029.122.03.121.03.121.03.121.03.12.029.123.031Z"/><path class="cls-1" d="M12.994,15.2l.128,1.627H8.774l-.152,0h-.3l-.143-1.627h4.817Zm8.34.085.1,1.627h-.088l-.089,0-.089,0H21.08l-.088,0H20.9l-.087,0h-.089l-.091,0-.088,0h-.176l-.091,0-.087,0h-.266l-.089,0H19.66l-.089,0h-.178l-.089,0h-.357l-.087,0h-.268l-.111-1.627h.359l.09,0H19.2l.09,0h.267l.087,0h.269l.089,0h.089l.092,0h.086l.089,0h.091l.089,0h.087l.089,0H20.8l.088,0h.089l.089,0,.089,0h.088l.089,0Zm10.028.3.06,1.626-.136-.006-.133,0-.138-.006-.135-.006-.134,0-.136-.006-.136,0-.136-.005-.134-.006-.136-.005-.138,0-.134-.006-.137,0-.136-.005-.134,0-.137,0-.136,0-.137-.005-.136,0-.137,0-.136,0-.137,0-.135,0-.137,0-.137,0-.137-.005-.136,0-.138,0-.137-.005-.135,0L27.2,17.06l-.137,0-.078-1.626.137,0,.137,0,.139,0,.137.005.137,0,.138.005.136,0,.137,0,.137.005.139,0,.137.005.136,0,.137.005.136,0,.137.005.136.005.137,0,.138.005.136,0,.136.005.138,0,.134.006.136.005.138,0,.136.006.136.005.136.006.138,0,.135.006.135.006.136.005.136.006ZM48.55,16.746l-.031,1.619-.109-.01-.11-.01-.11-.01-.111-.011-.111-.01-.11-.011-.108-.01-.111-.01-.11-.01-.111-.01-.111-.01-.111-.01-.11-.01-.109-.01-.111-.01-.111-.009-.111-.01-.111-.01-.111-.01-.109-.01-.111-.009-.114-.01-.109-.009-.111-.01-.112-.01-.109-.008-.114-.01-.111-.01-.11-.009L45.2,18.07l-.111-.009-.111-.009.008-1.622.113.009.111.009.112.01.114.009.112.01.109.009.114.01.111.01.111.009.114.01.109.009.111.01.113.009.111.01.112.01.111.01.11.01L47,16.6l.113.011.111.01.111.01.11.01.111.01.111.011.111.009.113.011.11.01.11.01.111.011.11.01.111.011.111.01Zm5.306.554-.065,1.616-.106-.012-.108-.012-.108-.013-.106-.012-.111-.011-.107-.013-.106-.012-.109-.012-.108-.012-.108-.012-.108-.012-.109-.012-.106-.011-.109-.012-.108-.012-.109-.011-.109-.012-.108-.012-.109-.012-.106-.011-.109-.012-.109-.011-.109-.012-.109-.011-.109-.011-.107-.011-.109-.011-.111-.012-.106-.011-.11-.011-.109-.012-.109-.01.041-1.619.111.011.108.011.11.011.112.012.107.011.109.011.111.012.109.011.109.012.109.011.109.012.109.011.11.012.109.012.109.011.109.012.108.012.109.012.108.011.111.013.108.012.109.011.109.013.108.012.108.012.111.012.108.012.105.012.111.012.108.013.108.011.109.013Zm9.376,1.257L63.1,20.164l-.107-.017-.108-.016-.108-.017-.109-.017-.108-.016-.106-.016-.108-.017-.109-.016-.109-.016L62.019,20l-.109-.016-.109-.016-.106-.016-.109-.016-.108-.016-.109-.016-.109-.016-.107-.016-.109-.016-.109-.015-.11-.016-.109-.016-.109-.016-.109-.016-.107-.015-.11-.016-.109-.016-.11-.015-.109-.015-.108-.015-.11-.015-.109-.016.106-1.611.109.016.11.015.112.016.109.016.11.015.11.016.109.015.112.016.109.015.11.016.109.016.109.016.109.016.109.016.112.016.109.016.109.016.109.016.109.016.111.017.108.016.109.017.109.016.108.016.109.017.109.016.111.017.108.017.108.016.109.017.107.016.11.017Zm3.712.607-.164,1.6-.1-.017-.095-.017-.094-.016-.1-.016-.1-.017-.095-.016-.1-.016-.093-.016-.1-.016-.1-.017-.093-.016-.1-.015-.1-.017-.093-.015-.1-.016-.1-.017-.094-.015-.1-.016-.1-.016-.1-.016-.094-.015-.1-.015-.1-.016-.1-.016-.095-.015-.1-.016-.1-.015L64.1,20.32l-.1-.015-.1-.016-.094-.014-.1-.016.138-1.606.1.015.1.016.1.016.094.015.1.015.1.016.1.015.1.016.1.016.094.016.1.015.1.016.1.016.1.016.1.016.1.016.1.016.093.015.1.017.1.016.1.016.1.017.093.016.1.016.1.016.1.017.1.016.095.017.095.016.1.017.095.017.1.015ZM75.3,20.806l-.243,1.586-.1-.022-.094-.02-.1-.021-.1-.022-.093-.02-.095-.021-.1-.021-.1-.021L74.2,22.2l-.1-.021-.1-.021-.1-.02-.1-.021-.095-.02-.1-.02-.1-.021-.1-.02-.1-.02L73.23,22l-.1-.02-.094-.021-.1-.019-.1-.02-.1-.02-.1-.021-.1-.02-.1-.019-.1-.02-.1-.02-.1-.02-.1-.02-.1-.019.212-1.593.1.02.1.02.1.019.1.021.1.019.1.021.1.02.1.02.1.02.1.021.1.02.1.021.1.02.095.02.1.02.1.022.1.02.1.021.1.021.1.021.1.02.1.021.1.021.1.021.1.021.094.02.1.022.1.021.094.021.1.021.1.022.1.021Zm4.207.984-.289,1.575-.11-.027L79,23.311l-.107-.027-.111-.026-.11-.028-.11-.026-.111-.027-.108-.027-.11-.026-.111-.027-.111-.027-.108-.026-.111-.026-.111-.027-.109-.025-.113-.027-.111-.027-.107-.025-.111-.025-.114-.027-.109-.026-.111-.025-.112-.026-.109-.026-.112-.025-.112-.026-.112-.025-.112-.026-.109-.025-.112-.025-.112-.026-.111-.024.249-1.585.113.025.113.026.113.025.113.026.113.026.111.026.112.025.112.026.114.026.112.026.112.026.113.026.11.026.111.026.115.027.112.027.109.025.113.027.111.027.111.026.114.027.11.027.111.026.112.027.111.027.11.028.111.026.111.027.11.027.113.028.11.027Z"/><path class="cls-1" d="M23.642,12.376,23.767,14l-.413,0-.413,0H19.619l-.417,0-.419,0-.418,0-.419,0-.42,0-.42,0-.42,0-.421,0-.422.005-.422.005-.423,0-.423.005-.423.006-.425.006-.424.007-.425.007-.425.007-.426.007L11.6,14.1l-.427.008-.427.008-.428.009-.167-1.627.429-.009.429-.008.428-.008.428-.008.427-.008.426-.006.426-.008.426-.006L14,12.426l.424-.006.425-.006.423,0,.423,0,.423,0,.423-.005.422,0,.421,0,.421,0,.42,0,.42,0,.419,0,.419,0h2.5l.416,0h.415l.415,0Zm7.994.11.091,1.628-.136,0-.133,0-.136,0-.136,0-.136,0-.135,0-.135,0-.136,0-.135,0-.137,0-.136,0-.136,0-.136,0-.135,0-.136,0-.136,0-.137,0-.136,0-.135,0-.137,0-.138,0-.137,0-.133,0h-.138l-.138,0-.137,0-.135,0-.137,0-.138,0-.137,0-.137,0H27.37l-.11-1.628.138,0,.137,0,.137,0,.138,0,.137,0,.139,0,.136,0,.135,0,.138,0,.14,0,.137,0,.135,0,.136,0,.139,0,.136,0,.137,0,.136,0,.137,0,.138,0,.136,0,.136,0,.136,0,.137,0,.135,0,.136,0,.138,0,.135,0,.137,0,.135,0,.136,0,.137,0,.136,0Zm17.6.872,0,1.622-.107-.009-.109-.008-.108-.009-.106-.007-.111-.009-.108-.009-.107-.007-.109-.008-.108-.009-.109-.008-.106-.008-.109-.008-.111-.008-.106-.008-.109-.007-.109-.009-.109-.007-.109-.008-.107-.008-.109-.008-.11-.007-.109-.008-.108-.008-.11-.007-.11-.008-.109-.008-.107-.007-.109-.007-.11-.008-.11-.007-.109-.007-.108-.007-.02-1.624.111.007.109.008.11.007.109.008.11.007.111.008.109.007.11.008.11.007.108.008.109.008.11.007.109.008.111.008.109.008.109.008.109.008.109.007.112.008.106.009.109.007.111.008.109.009.108.008.109.008.111.009.108.008.107.008.11.009.109.008.107.009.11.008Zm4.457.391-.033,1.62-.105-.011-.1-.009-.106-.011-.106-.01-.106-.01-.1-.01-.108-.01-.106-.01-.1-.01-.107-.01-.106-.009-.1-.01-.106-.009-.109-.01-.1-.009-.105-.01-.107-.01-.106-.009-.107-.01-.1-.009-.106-.009-.107-.009-.107-.01-.107-.009-.106-.009-.1-.009-.107-.009-.109-.01-.1-.009-.108-.008-.107-.01-.107-.008.01-1.622.108.009.107.01.107.009.11.009.1.009.107.009.11.009.107.009.107.009.106.01.107.009.106.009.109.01.107.009.106.01.107.009.107.01.108.01.105.009.106.01.108.01.107.01.106.009.108.01.107.011.1.009.109.01.1.011.106.009.106.011.106.01.107.01Zm9.492,1.119-.108,1.61-.1-.014-.1-.014-.105-.014-.1-.015-.1-.014-.1-.014-.1-.014-.1-.015-.1-.014-.1-.014-.1-.014-.1-.013-.1-.014-.1-.014-.105-.014-.1-.014-.1-.013-.1-.014-.1-.013-.1-.014-.1-.013-.1-.013-.106-.014-.1-.014-.1-.013-.1-.013-.1-.013-.1-.013-.1-.013-.1-.013-.105-.013-.1-.013.08-1.615.106.014.1.013.105.013.1.013.1.013.107.014.105.013.1.013.107.014.1.013.1.013.106.014.105.014.1.013.1.014.106.014.1.014.1.014.106.014.1.014.1.013.106.015.1.014.1.014.1.015.1.014.1.014.106.014.1.015.1.014.106.014.1.015Zm3.235.482-.137,1.606-.093-.015-.094-.014L66,16.912l-.093-.014-.1-.015-.092-.014-.093-.015-.093-.014-.092-.014-.093-.014-.1-.015-.095-.015-.091-.013-.093-.014-.092-.014-.094-.014-.1-.014L64.6,16.7l-.094-.014-.094-.014-.095-.013-.094-.015-.092-.013-.1-.014-.1-.014-.092-.013-.093-.014-.095-.013-.095-.014-.092-.014-.094-.013-.095-.013.11-1.61.094.013.094.013.1.014.094.014.095.013.095.014.1.014.094.014.093.013.1.015.094.014.095.014.094.014.095.013.1.015.092.013.093.014.1.015.094.014.1.015.094.015.092.013.094.014.1.015.094.015.093.014.1.015.091.014.094.015.1.014.094.015.093.015Zm8.829,1.624-.228,1.589-.092-.02-.093-.02L74.74,18.5l-.093-.019-.095-.02-.09-.019-.091-.018-.1-.02-.093-.02-.09-.018L74,18.351l-.093-.019-.094-.019-.093-.019-.091-.019-.093-.019-.1-.019-.092-.018-.091-.019-.1-.018-.094-.019-.091-.018-.094-.019-.094-.018-.094-.019-.091-.018-.095-.018-.1-.019-.091-.018L72.224,18l-.094-.018-.093-.018.2-1.6.1.018.094.019.094.017.1.02.092.018.094.018.1.019.094.018.094.019.094.018.1.019.094.019.091.019.1.018.1.02.092.019.093.019.1.019.093.019.093.019.094.02.093.019.1.019.094.02.09.018.1.02.1.02.091.019.093.019.1.021.094.019.092.02Zm3.4.758-.269,1.581-.1-.024-.1-.023-.1-.023-.1-.024-.1-.023-.1-.023-.1-.023-.1-.023-.1-.023-.1-.022-.1-.023-.1-.023-.1-.023-.1-.022-.1-.023-.1-.023-.1-.021-.1-.023-.1-.022-.1-.023-.1-.022-.1-.022-.1-.022-.1-.022-.1-.022-.1-.021-.1-.023-.1-.022-.1-.021-.1-.021-.1-.022-.1-.022.229-1.589.1.023.1.021.1.021.107.023.1.022.1.022.1.022.1.022.1.022.1.023.1.022.1.023.1.022.1.022.1.023.1.023.1.022.1.023.1.023.1.023.1.023.1.023.1.023.1.023.1.024.1.022.1.025.1.023.1.023.1.024.1.024Z"/><path class="cls-1" d="M23.474,9.41l.159,1.628-.335,0-.336.006-.336.006-.337.007-.337.006-.337.007-.337.008-.337.008L20.6,11.1l-.339.008-.338.008-.339.009-.34.01-.339.009-.34.01-.341.01-.339.011-.342.011L17.2,11.2l-.342.011-.341.012-.342.012-.343.013-.343.012-.343.013-.344.013-.343.014-.344.014-.344.015-.345.014-.345.015-.345.015-.207-1.626.346-.015.347-.015.346-.015.345-.014.345-.014.346-.014.346-.013L15.3,9.63l.344-.012.344-.013.343-.012.343-.012.344-.011.342-.011.342-.011.342-.011.342-.01.342-.01.341-.009.34-.01.341-.009.341-.009.34-.008.339-.009.339-.007.339-.008.339-.007.339-.007.338-.006.337-.006.338-.006.337-.006Zm8.446-.032.117,1.627H27.682l-.139-1.627H31.92Zm17.971.714.008,1.623-.106-.008-.106-.008-.106-.007-.107-.008-.106-.007-.106-.008-.107-.008-.1-.007-.107-.007-.107-.008-.107-.007-.106-.008-.105-.006-.107-.007-.106-.008L48.2,11.6l-.107-.007-.107-.007-.107-.007-.1-.007-.107-.006-.109-.008-.105-.007-.1-.006-.109-.007-.108-.007-.105-.006-.107-.007-.108-.006L46.7,11.5l-.108-.007-.106-.006-.031-1.624.109.007.108.006.107.007.107.006L47,9.9l.109.006.108.007.1.007.11.006.109.008.105.007.107.006.109.007.108.007.107.007.106.007.108.008.107.007.107.007L48.61,10l.106.008.107.007.107.008.107.007.108.007.107.008.106.008.106.007.107.008.106.007.107.008.107.008Zm3.661.3-.02,1.621-.1-.01-.1-.009-.1-.009-.1-.009-.1-.009-.1-.009-.1-.009-.1-.009-.1-.009-.1-.009-.105-.008-.1-.009-.1-.009-.1-.008-.1-.009-.1-.009-.1-.008-.1-.009-.1-.008-.1-.009-.1-.008-.1-.008-.1-.008-.105-.008-.1-.008-.105-.009-.1-.008-.105-.008-.1-.008-.106-.007-.1-.008-.1-.008L50.2,10.114l.106.008.1.008.105.008.107.008.1.008.105.009.1.008.1.008.105.008.1.008.1.009.107.008.1.008.1.008.105.009.1.008.108.009.1.009.105.009.1.008.1.009.1.009.107.009.1.009.1.009.1.009.105.009.1.009.1.009.107.009.1.009.1.01Zm12.417,1.465-.123,1.609-.184-.027-.186-.028-.182-.027-.185-.026-.185-.027-.186-.027-.184-.027-.185-.025-.187-.026L64,13.2l-.185-.027-.185-.025-.186-.025-.187-.025-.187-.026-.184-.025-.188-.025-.187-.025-.187-.024-.186-.024-.187-.024-.188-.024-.189-.024-.186-.024-.187-.023-.19-.023-.188-.024-.188-.023-.187-.023-.19-.023-.188-.022-.189-.023.071-1.615.19.022.19.023.19.023.191.023.191.024.188.023.189.024.19.023.189.025.189.024.188.024.189.024.19.024.188.025.188.025.187.025.19.025.188.026.187.025.188.026.188.025.188.026.186.027.187.026.188.027.187.026.185.027.187.027.186.027.188.027.186.028.185.027Zm11.882,2.182-.243,1.586-.172-.039-.17-.037-.172-.037-.172-.037-.173-.037-.171-.037-.172-.037-.172-.036-.173-.037-.173-.036-.172-.035-.174-.036-.173-.036-.173-.036-.172-.035-.174-.036L74.675,15l-.174-.036-.172-.034-.175-.034-.175-.035-.174-.034-.174-.034-.174-.034-.176-.033-.175-.034-.175-.034-.175-.033L72.58,14.6l-.175-.033-.176-.032-.176-.033.184-1.6.177.033.177.032L72.77,13l.176.033.178.034.177.034.176.034.176.033.178.034.176.035.176.035.176.035.175.034.178.036.175.035.175.035.175.035.176.036.176.036.174.036.173.036.176.037.175.037.174.036.174.037.175.038.174.037.173.037.173.037.174.038.174.039Z"/><path class="cls-1" d="M22.113,6.4l.213,1.628-.189.009-.19.009-.19.009-.189.01-.191.009-.189.01L21,8.091l-.19.009-.189.011-.192.011-.19.01-.188.011-.19.011-.191.011-.19.012-.191.011L19.1,8.2l-.19.011-.19.012-.19.011-.19.013-.192.012-.19.013-.19.012-.19.013-.192.013-.19.013L17,8.336l-.19.013-.192.013-.191.014-.191.014-.255-1.624.193-.014.191-.013.192-.014.192-.014.193-.013.192-.013.191-.013.191-.013.193-.013.192-.012.192-.012.19-.013.193-.012.191-.012.193-.012.191-.011.19-.012.193-.011.19-.011.191-.011.194-.011L20.2,6.5l.19-.01.192-.011.192-.01.191-.01.191-.01.191-.01.191-.009.192-.01.19-.009.192-.01Zm10.113-.273.145,1.628h-.405l-.136,0h-.138l-.135,0h-.272l-.135,0-.136,0h-.136l-.134,0-.137,0-.137,0-.134,0-.136,0-.137,0-.137,0-.136,0-.135,0-.137,0-.136,0-.135,0-.137,0-.135,0-.137,0-.138,0-.135,0-.135,0-.137,0-.137,0-.136,0L27.844,6.19l.138,0,.136,0,.137,0,.139,0,.138,0,.135,0,.137,0,.138,0,.137,0,.138,0,.137,0,.137,0,.137,0,.137,0,.136,0,.137,0,.136,0,.139,0h.137l.135,0h.139l.136,0H31l.138,0h.137l.136,0h.272l.136,0h.411Zm21.2.835L53.414,8.58l-.192-.017-.191-.016L52.84,8.53l-.193-.015L52.455,8.5l-.191-.016-.193-.015-.192-.016-.192-.015L51.5,8.421,51.3,8.407l-.193-.015-.194-.015-.192-.015-.192-.014-.194-.014-.192-.014-.193-.014-.194-.013-.193-.013-.193-.013-.194-.014-.193-.013-.2-.012L48.6,8.215,48.405,8.2l-.2-.013-.193-.012-.2-.012-.194-.011-.193-.012-.2-.011-.035-1.626.2.011.2.012.2.012.2.012.2.012.2.013.2.012.2.013.2.012.2.014.194.013.2.013.2.014.194.013.2.014.2.014.193.014.2.015.2.014.193.015.194.015.194.014.194.016.2.015.193.016.193.015.2.016.192.017.193.015.194.017.194.017.193.017ZM65.558,8.372l-.117,1.61-.168-.024-.168-.025-.17-.024-.169-.025L64.6,9.86l-.169-.025-.168-.023-.17-.024-.169-.024-.17-.024-.17-.024-.168-.023-.171-.022-.17-.024-.17-.023L62.729,9.6l-.169-.022-.171-.022-.171-.023-.169-.023-.171-.022-.171-.022-.171-.021-.171-.022L61.2,9.4l-.171-.021-.172-.021-.172-.021-.171-.021L60.338,9.3l-.172-.021L60,9.256l.068-1.617.174.021.172.021.173.021.174.021.172.022.172.021.173.021.174.022.171.022.174.022.171.022.171.022.174.023.171.022.171.023.173.023.171.023.173.023.17.023.171.023.173.024.171.024.17.024.172.024.17.024.171.024.172.025.17.024.169.025.17.024.171.025.171.025Zm11.523,2.066-.226,1.591L76.705,12l-.15-.032-.148-.031-.149-.031-.151-.031-.15-.032-.148-.031-.151-.031-.149-.031-.151-.03-.151-.031-.149-.03-.15-.031-.151-.03-.151-.03-.15-.03-.151-.03-.152-.03L74,11.446l-.151-.029-.151-.03-.152-.029-.152-.03-.151-.029-.15-.028-.153-.029-.152-.029-.151-.029-.151-.027-.153-.029-.152-.028-.152-.028.178-1.6.155.028.152.028.153.029.155.028.154.03.152.029.152.029.154.029.154.03.152.029.153.029.151.03.154.029.153.031.151.03.153.03.152.03.152.031.151.03.153.03.153.031.151.031.151.031.152.031.151.032.152.031.151.031.15.031.152.033.152.032.15.032Z"/><path class="cls-1" d="M32.526,3.175,32.673,4.8H32.4l-.136,0h-.272l-.136,0h-.135l-.133,0-.136,0-.139,0h-.134l-.134,0-.137,0-.136,0-.137,0-.136,0-.135,0-.134,0-.139,0-.136,0-.135,0-.135,0-.136,0-.137,0-.137,0-.136,0-.135,0-.137,0-.136,0-.135,0-.137,0-.137,0L28.147,3.25l.136,0,.137,0,.138,0,.137,0,.137,0,.138,0,.136,0,.137,0,.136,0,.137,0,.138,0,.138,0,.137,0,.135,0,.138,0,.138,0,.136,0,.137,0,.136,0,.136,0,.138,0,.139,0H31.3l.136,0h.138l.138,0h.136l.136,0h.41l.136,0Zm20.8.769-.007,1.623-.169-.014-.169-.013-.169-.015-.168-.013L52.479,5.5l-.17-.013-.17-.013-.168-.013L51.8,5.446l-.17-.013-.17-.013-.169-.012-.17-.013-.169-.012-.169-.012-.17-.012-.171-.012-.17-.012-.169-.012-.169-.011-.17-.012-.17-.011-.171-.011-.171-.011-.169-.011-.17-.011-.171-.01-.171-.011-.17-.011-.171-.01-.17-.01-.171-.01-.035-1.626.172.01.173.011.171.01.173.01.171.011.171.011.172.011.172.01.171.012.171.011.172.011.171.012.172.011.172.013.17.012.171.012.17.012.171.012.172.012.17.013.171.012.17.013.17.013.172.013.171.014.17.013.17.013.17.014.171.014.17.014.169.013.17.014ZM65.212,5.278,65.105,6.89l-.156-.022-.156-.022-.154-.022L64.485,6.8l-.157-.021-.155-.022-.155-.02-.157-.022L63.707,6.7l-.156-.02-.157-.021-.155-.021-.156-.02-.158-.021-.155-.021-.156-.02-.156-.02-.156-.02-.157-.019-.158-.02-.156-.02-.156-.02-.156-.019L61.361,6.4,61.2,6.376l-.156-.02-.157-.019-.158-.018L60.574,6.3l-.156-.018-.158-.019L60.1,6.245l.063-1.618.159.019.158.018.16.02L60.8,4.7l.158.018.16.019.159.019.157.02.158.019.159.02.158.02.158.019.157.02.157.02.159.021.157.02.159.02.159.021L63.171,5l.158.02.158.021.156.021.157.021.159.021.156.021.158.022.156.022.156.021.158.022.157.022.156.022.156.022ZM76.391,7.209,76.179,8.8l-.13-.027-.13-.026-.128-.026L75.659,8.7l-.131-.027L75.4,8.645l-.13-.026-.13-.025-.131-.027-.13-.025-.13-.025-.131-.026-.131-.025-.132-.026-.129-.026L74.1,8.39l-.131-.025-.132-.025L73.7,8.315,73.57,8.29l-.13-.025-.131-.025-.132-.025-.13-.024-.131-.024-.132-.024-.134-.025-.13-.024-.13-.024-.133-.024-.132-.023L71.994,8l.171-1.6.133.024.133.024.132.024.135.025.133.024.131.025.132.024.134.024.134.025.132.026.132.024.133.026.132.025.131.025.132.025.132.025.133.026.133.025.131.026.131.025.132.026.132.026.131.026L75.341,7l.131.026.132.026.134.026.13.027L76,7.129l.132.027.132.027Z"/><path class="cls-1" d="M32.857,0l.158,1.628-.136,0h-.135l-.135,0-.136,0-.134,0-.135,0-.139,0-.134,0-.134,0-.136,0-.137,0-.136,0-.136,0-.136,0-.135,0-.135,0-.138,0-.136,0-.135,0-.135,0-.137,0-.137,0-.136,0-.137,0-.135,0-.137,0-.137,0-.135,0-.138.005-.137,0-.135.005-.138,0L28.476.1l.137-.005.139,0,.137,0,.137,0,.139,0,.137,0,.137,0,.138,0,.137,0,.137,0,.137,0,.136,0,.138,0,.139,0,.136,0,.135,0,.138,0,.138,0,.136,0,.136,0,.137,0,.136,0,.136,0,.137,0,.138,0,.135,0,.135,0,.138,0,.136,0,.138,0,.135,0,.136,0ZM53.228.619l0,1.624-.144-.011-.144-.011L52.8,2.21,52.657,2.2l-.144-.01-.144-.011-.144-.011-.143-.01-.145-.01-.142-.01-.145-.01-.145-.01-.143-.01-.145-.01-.143-.01-.145-.009-.144-.01-.144-.009L50.5,2.05l-.146-.01-.145-.009-.143-.009-.144-.008L49.771,2,49.627,2l-.145-.008-.146-.009-.145-.009-.144-.008L48.9,1.954l-.146-.009-.145-.008L48.57.311l.146.008.146.008.146.009.147.008L49.3.353l.144.008.147.009.147.009.144.008.147.01.147.009.145.009.146.009.145.01.147.009.145.01.145.009.146.01.145.01.147.01.144.01.145.01.147.011.144.01.146.01.144.011.144.01.145.011.143.011L52.94.6l.144.011.144.011ZM64.853,1.866l-.1,1.612-.141-.019-.139-.019-.141-.019L64.191,3.4l-.142-.019-.14-.02-.14-.018-.14-.019-.142-.018-.142-.019-.14-.018-.141-.018-.142-.019-.141-.017L62.64,3.2,62.5,3.181l-.141-.018-.142-.018-.142-.017-.141-.017-.142-.018-.142-.017-.142-.017-.143-.018-.14-.016-.144-.017-.141-.017L60.8,2.975l-.143-.017-.141-.016-.143-.017-.143-.016.059-1.617.144.016.143.016.144.017.144.017L61,1.374l.144.017.143.017.145.017.142.017.143.017.145.018.142.017.144.018.142.018.143.018.144.018.142.018.142.018.144.018.142.019.141.018.144.018.141.019.142.018.143.019L64,1.75l.141.02.141.019.142.019.141.019.143.019.141.02ZM75.645,3.693l-.208,1.594-.109-.022-.109-.022-.108-.022L75,5.2l-.11-.022-.109-.022-.11-.021-.109-.022-.108-.021-.108-.022-.112-.021-.11-.022-.107-.021-.11-.021-.11-.021-.11-.022-.109-.02L73.47,4.9l-.109-.021-.109-.021-.11-.02-.11-.021L72.921,4.8l-.11-.02-.109-.02-.11-.021-.111-.02-.108-.02-.111-.02-.111-.021-.11-.02-.11-.02.171-1.6.113.02.112.021.11.02.111.02.113.02.111.021.11.02L73,3.178l.11.02.11.021.111.021.111.02.112.022.111.021.11.021.112.022.11.021.11.021.11.021.113.022.109.021.108.022.112.021.112.022.11.022.109.022.11.022.11.021.11.023.111.022.109.022Z"/></g></g></svg>